<svg xmlns="http://www.w3.org/2000/svg" width="64" height="64" viewBox="0 0 64 64">
  <rect width="64" height="64" rx="10" fill="#ffffff" />
  <!-- 흙/화분 -->
  <rect x="10" y="47" width="44" height="12" rx="3" fill="#A04000" />
  
  <!-- 줄기 -->
  <path d="M32 47L32 35" stroke="#3A9D23" stroke-width="3" stroke-linecap="round" />
  
  <!-- 잎 -->
  <path d="M23 30C23 30 26 35 32 35C38 35 40 30 45 25C50 20 45 12 38 15C34 17 32 22 32 25" fill="#2ECC71" />
  <path d="M40 30C40 30 37 35 32 35C27 35 25 30 20 25C15 20 20 12 27 15C31 17 32 22 32 25" fill="#27AE60" />
</svg> 